<svg width="34" height="34" viewBox="0 0 34 34" fill="none" xmlns="http://www.w3.org/2000/svg">
<path d="M26.9874 6.95607C25.6884 5.64439 24.1413 4.60436 22.4364 3.89659C20.7314 3.18881 18.9026 2.82746 17.0566 2.83357C9.32155 2.83357 3.01739 9.13774 3.01739 16.8727C3.01739 19.3519 3.66905 21.7602 4.88739 23.8852L2.90405 31.1669L10.3416 29.2119C12.3957 30.3311 14.7049 30.9261 17.0566 30.9261C24.7916 30.9261 31.0957 24.6219 31.0957 16.8869C31.0957 13.1327 29.6366 9.60524 26.9874 6.95607ZM17.0566 28.5461C14.9599 28.5461 12.9057 27.9794 11.1066 26.9169L10.6816 26.6619L6.26155 27.8236L7.43739 23.5169L7.15405 23.0777C5.98891 21.2177 5.37036 19.0675 5.36905 16.8727C5.36905 10.4411 10.6107 5.19941 17.0424 5.19941C20.1591 5.19941 23.0916 6.41774 25.2874 8.62774C26.3748 9.70988 27.2366 10.9972 27.8227 12.415C28.4088 13.8327 28.7075 15.3528 28.7016 16.8869C28.7299 23.3186 23.4882 28.5461 17.0566 28.5461ZM23.4599 19.8194C23.1057 19.6494 21.3774 18.7994 21.0657 18.6719C20.7399 18.5586 20.5132 18.5019 20.2724 18.8419C20.0316 19.1961 19.3657 19.9894 19.1674 20.2161C18.9691 20.4569 18.7566 20.4852 18.4024 20.3011C18.0482 20.1311 16.9149 19.7486 15.5832 18.5586C14.5349 17.6236 13.8407 16.4761 13.6282 16.1219C13.4299 15.7677 13.5999 15.5836 13.7841 15.3994C13.9399 15.2436 14.1382 14.9886 14.3082 14.7902C14.4782 14.5919 14.5491 14.4361 14.6624 14.2094C14.7757 13.9686 14.7191 13.7702 14.6341 13.6002C14.5491 13.4302 13.8407 11.7019 13.5574 10.9936C13.2741 10.3136 12.9766 10.3986 12.7641 10.3844H12.0841C11.8432 10.3844 11.4749 10.4694 11.1491 10.8236C10.8374 11.1777 9.93072 12.0277 9.93072 13.7561C9.93072 15.4844 11.1916 17.1561 11.3616 17.3827C11.5316 17.6236 13.8407 21.1652 17.3541 22.6811C18.1899 23.0494 18.8416 23.2619 19.3516 23.4177C20.1874 23.6869 20.9524 23.6444 21.5616 23.5594C22.2416 23.4602 23.6441 22.7094 23.9274 21.8877C24.2249 21.0661 24.2249 20.3719 24.1257 20.2161C24.0266 20.0602 23.8141 19.9894 23.4599 19.8194Z" fill="#3A3A3A"/>
</svg>
