<svg width="21" height="14" viewBox="0 0 21 14" fill="none" xmlns="http://www.w3.org/2000/svg">
<path d="M20.1883 8.77494C20.1883 9.21697 20.0127 9.64089 19.7001 9.95345C19.3876 10.266 18.9636 10.4416 18.5216 10.4416H10.4283C10.3894 11.0338 10.3416 11.6261 10.2849 12.2183L10.2349 12.7266C10.2163 12.9182 10.1518 13.1025 10.0467 13.2638C9.94172 13.4251 9.79934 13.5587 9.63167 13.6532C9.46401 13.7478 9.27601 13.8005 9.08363 13.8069C8.89126 13.8133 8.70018 13.7731 8.5266 13.6899C5.47907 12.2312 2.72073 10.2328 0.384939 7.79161L0.334939 7.73994C0.120033 7.51641 0 7.21836 0 6.90828C0 6.59819 0.120033 6.30015 0.334939 6.07661L0.384939 6.02494C2.72073 3.58372 5.47907 1.5854 8.5266 0.126611C8.70018 0.0434068 8.89126 0.00329964 9.08363 0.00969372C9.27601 0.0160878 9.46401 0.0687943 9.63167 0.16334C9.79934 0.257886 9.94172 0.391482 10.0467 0.552791C10.1518 0.714101 10.2163 0.898363 10.2349 1.08994L10.2849 1.59828C10.3416 2.18939 10.3894 2.78161 10.4283 3.37494H18.5216C18.9636 3.37494 19.3876 3.55054 19.7001 3.8631C20.0127 4.17566 20.1883 4.59958 20.1883 5.04161V8.77494Z" fill="white"/>
</svg>
